<svg xmlns="http://www.w3.org/2000/svg" width="993.73022" height="422.32217" viewBox="0 0 993.73022 422.32217" xmlns:xlink="http://www.w3.org/1999/xlink">
  <!-- Main Body -->
  <path d="M608.03796,422.32217h-221.40814c-6.26141,0-11.35526-5.0943-11.35526-11.35526V11.35525c0-6.26094,5.09384-11.35525,11.35526-11.35525h221.40814c6.26141,0,11.35522,5.09431,11.35522,11.35525V410.96692c0,6.26093-5.09381,11.35526-11.35522,11.35526ZM473.16803,1.89625c-53.01779,0-95.99719,42.97942-95.99719,95.99722V410.96692c0,5.22406,4.23495,9.45901,9.45901,9.45901h221.40811c5.22406,0,9.45898-4.23492,9.45898-9.45898V11.35525c0-5.22407-4.23492-9.45901-9.45898-9.45901h-134.86993Z" fill="#d3d8e0"/>
  <!-- Left Wing (Curved) -->
  <polygon points="0 243.03156 13.4609 237.96519 431.36432 248.82169 448.73471 238.86026 441.49704 290.07632 109.53795 254.70364 0 243.03156" fill="#4a90e2"/>
  <!-- Right Wing (Curved) -->
  <polygon points="993.73022 243.03156 980.26935 237.96519 562.36591 248.82169 544.99554 238.86026 552.23315 290.07632 884.19226 254.70364 993.73022 243.03156" fill="#4a90e2"/>
  <!-- Left Wing Shadow -->
  <polygon points="107.4792 271.6203 109.53795 254.70364 441.49704 290.07632 439.68762 315.04623 107.4792 271.6203" fill="#2a3b5e"/>
  <!-- Right Wing Shadow -->
  <polygon points="886.25104 271.6203 884.19226 254.70364 552.23315 290.07632 554.0426 315.04623 886.25104 271.6203" fill="#2a3b5e"/>
  <!-- Left Engine (Oval with Gradient) -->
  <defs>
    <linearGradient id="engineGradient" x1="0%" y1="0%" x2="100%" y2="0%">
      <stop offset="0%" style="stop-color:#4a90e2"/>
      <stop offset="100%" style="stop-color:#7bbcff"/>
    </linearGradient>
  </defs>
  <ellipse cx="320.76089" cy="285.00998" rx="38" ry="34" fill="url(#engineGradient)"/>
  <circle cx="320.76089" cy="278.49609" r="25.33179" fill="#4a90e2"/>
  <!-- Right Engine (Oval with Gradient) -->
  <ellipse cx="652.96936" cy="285.00998" rx="38" ry="34" fill="url(#engineGradient)"/>
  <circle cx="652.96936" cy="278.49609" r="25.33179" fill="#4a90e2"/>
  <!-- Left Windows (Rounded, Added Third Window) -->
  <polygon points="380.33884 279.58173 383.23392 356.30087 376.18716 356.30087 376.18716 364.98608 395.88272 364.98608 395.88272 356.30087 390.13818 356.30087 390.54849 279.58173 380.33884 279.58173" fill="#2a3b5e"/>
  <rect x="372.73932" y="343.99686" width="10.85651" height="33.29321" rx="8" ry="8" fill="#2a3b5e"/>
  <rect x="400.2424" y="343.99686" width="10.85651" height="33.29321" rx="8" ry="8" fill="#2a3b5e"/>
  <rect x="386.49086" y="343.99686" width="10.85651" height="33.29321" rx="8" ry="8" fill="#2a3b5e"/>
  <!-- Right Windows (Rounded, Added Third Window) -->
  <polygon points="613.39136 279.58173 610.49634 356.30087 617.54303 356.30087 617.54303 364.98608 597.84753 364.98608 597.84753 356.30087 603.59204 356.30087 603.1817 279.58173 613.39136 279.58173" fill="#2a3b5e"/>
  <rect x="615.56262" y="343.99686" width="10.85651" height="33.29321" rx="8" ry="8" fill="#2a3b5e"/>
  <rect x="588.05963" y="343.99686" width="10.85651" height="33.29321" rx="8" ry="8" fill="#2a3b5e"/>
  <rect x="601.81112" y="343.99686" width="10.85651" height="33.29321" rx="8" ry="8" fill="#2a3b5e"/>
  <!-- Tail (Notched) -->
  <path d="M560.01367,217.89745l-1.64294,12.10632-.854,65.16789c-.06519,4.84918-.65143,9.64053-1.75153,14.28714-3.1701,13.53439-10.57422,25.84564-21.51038,34.76971-9.92279,8.10614-23.45718,14.24365-41.37039,13.15802-47.76852-2.89505-51.9881-43.54901-51.9881-43.54901l1.80219-73.72276,.24609-10.11098,2.1713-18.24385s5.79013-51.38736,59.34879-49.93983c53.55869,1.44753,55.54898,56.07735,55.54898,56.07735Z" fill="#4a90e2"/>
  <!-- Cockpit -->
  <polygon points="456.69611 200.90344 467.55261 183.53307 481.30414 179.19048 528.34894 179.19048 539.9292 183.53307 550.43805 200.90344 531.24396 192.21826 477.40039 192.21826 456.69611 200.90344" fill="#d3d8e0"/>
  <!-- Cockpit Windows -->
  <rect x="460.31845" y="185.7903" width="37.36307" height="1.99969" transform="translate(170.83368 598.33002) rotate(-74.47739)" fill="#2a3b5e"/>
  <rect x="529.99975" y="174.10844" width="2.00043" height="37.3632" transform="translate(-27.20847 106.00117) rotate(-11.11698)" fill="#2a3b5e"/>
  <!-- Antennas -->
  <circle cx="734.41626" cy="103.75365" r="10" fill="#2a3b5e"/>
  <circle cx="374.6018" cy="146.30627" r="10" fill="#2a3b5e"/>
  <circle cx="196.41629" cy="388.75366" r="10" fill="#2a3b5e"/>
  <!-- FlightMitra Logo -->
  <text x="480" y="200" font-size="20" fill="#2a3b5e">FM</text>
  <!-- Striped Pattern on Fuselage -->
  <defs>
    <pattern id="fuselageStripes" patternUnits="userSpaceOnUse" width="10" height="10">
      <line x1="0" y1="0" x2="10" y2="0" stroke="#ff8c42" stroke-width="2"/>
    </pattern>
  </defs>
  <rect x="386.62979" y="11.35525" width="221.40814" height="399.61167" fill="url(#fuselageStripes)" opacity="0.2"/>
</svg>