<svg xmlns="http://www.w3.org/2000/svg" width="654.04004" height="501.00456" viewBox="0 0 654.04004 501.00456" xmlns:xlink="http://www.w3.org/1999/xlink">
  <!-- Main Body -->
  <path d="M133.3153,289.10046v23.65354l-6.5,10.84646,2,38,1.61812,.99996-1.11812-38.49996c11.39322-4.24158,15.1188,3.57135,14,19l-2,26,32,20,4-41,15-7,16.5,69.5H485.26378c11.39576,0,20.50201-9.48262,20.04074-20.86904l-3.48923-86.13096-9.41339-9.41339-8.7202-100.86462c-2.17464-25.15363-23.50321-44.29878-48.74481-43.75478l-172.93405,3.72703c-9.38179,.20219-18.65063,2.091-27.36343,5.57612c-20,-5,-30,5,-41.82413,16.72965l-26.99606,26.99606-4.00394,65.00394-10.20744-.8876c-7.34262-.63849-14.0392,4.21417-15.71879,11.39057l-2.57377,10.99703Z" fill="#d3d8e0"/>
  <!-- Wheels (Angular) -->
  <polygon points="495.3153,431.10046 505.3153,431.10046 507.3153,441.10046 505.3153,451.10046 495.3153,453.10046 485.3153,451.10046 483.3153,441.10046 485.3153,431.10046" fill="#2a3b5e"/>
  <polygon points="251.8153,430.60046 261.8153,430.60046 263.8153,440.60046 261.8153,450.60046 251.8153,452.60046 241.8153,450.60046 239.8153,440.60046 241.8153,430.60046" fill="#2a3b5e"/>
  <polygon points="194.95337,369.73401 204.95337,369.73401 206.95337,379.73401 204.95337,389.73401 194.95337,391.73401 184.95337,389.73401 182.95337,379.73401 184.95337,369.73401" fill="#2a3b5e"/>
  <!-- Roof (Ellipse) -->
  <ellipse cx="320.3153" cy="127.10046" rx="70" ry="65" transform="rotate(10)" fill="#4a90e2"/>
  <!-- Windows (Trapezoid and Circles) -->
  <polygon points="161.3153,316.10046 176.3153,316.10046 174.3153,323.10046 159.3153,323.10046" fill="#2a3b5e"/>
  <circle cx="222.8153" cy="372.60046" r="8" fill="#2a3b5e"/>
  <circle cx="245.8153" cy="372.60046" r="8" fill="#2a3b5e"/>
  <circle cx="469.8153" cy="372.60046" r="8" fill="#2a3b5e"/>
  <circle cx="492.8153" cy="372.60046" r="8" fill="#2a3b5e"/>
  <!-- Hood and Side Panels -->
  <path d="M149.40941,374.21435l-2.59412-56.6139s-6-8-10-6-9.94094,13.12205-9.94094,13.12205c0,0,11.59412-.75984,11.26753,11.55906-.32659,12.3189,1.98641,32.24811,1.98641,32.24811l9.28112,5.68469Z" fill="#4a90e2"/>
  <path d="M173.55899,389.00597l1.25631-42.23622,12.72047-15.02362s17-3.67323,16.63976,15.59055,5.13976,63.76378,5.13976,63.76378l-12.43096-7.80772s-3.06904-47.69228-12.06904-52.69228-6-1-6-1l-5.25631,39.40551Z" fill="#4a90e2"/>
  <!-- Interior -->
  <path d="M477.21031,278.67174H242.11608c-1.79736,0-3.47021-.71582-4.71045-2.0166s-1.87695-3.00586-1.79199-4.80078l3.43457-72.625c.1626-3.43359,2.98242-6.1582,6.41895-6.20215l221.98438-2.85742c3.27783-.03125,6.12012,2.39941,6.54102,5.68164l9.6748,75.48242c.23779,1.85449-.33447,3.72363-1.56982,5.12793-1.23584,1.4043-3.01709,2.20996-4.88721,2.20996Z" fill="#ffffff"/>
  <path d="M209.29186,275.10046h-15.25391c-1.80957,0-3.55225-.76172-4.78027-2.09082-1.22852-1.3291-1.85156-3.12598-1.70947-4.93066l4.39062-55.7207c.24072-3.05957,2.53076-5.5,5.56885-5.93359l15.7627-2.25195c1.97363-.28027,3.93896,.3418,5.38916,1.71094,1.45068,1.37012,2.18604,3.29492,2.01807,5.28223l-4.89893,57.97266c-.28711,3.39844-3.07617,5.96191-6.48682,5.96191Z" fill="#ffffff"/>
  <path d="M174.21276,273.68444c-.15771,0-.31641-.00586-.4751-.0166l-1.79102-.12793c-1.76904-.12695-3.37305-.94336-4.51562-2.2998-1.14258-1.35742-1.67432-3.07617-1.49805-4.8418l4.92725-49.27344c.29199-2.91699,2.51514-5.29102,5.40771-5.77344,1.97119-.33105,3.95166,.25098,5.43359,1.59082,1.48242,1.33789,2.25977,3.24902,2.1333,5.24219l-3.13672,49.40234c-.11084,1.74512-.89697,3.33984-2.21436,4.49023-1.19678,1.0459-2.69824,1.60742-4.271,1.60742Z" fill="#ffffff"/>
  <!-- Roof Rack -->
  <rect x="320" y="120" width="50" height="5" fill="#2a3b5e"/>
  <!-- FlightMitra Logo -->
  <text x="300" y="300" font-size="20" fill="#2a3b5e">FM</text>
  <!-- Striped Pattern on Hood -->
  <defs>
    <pattern id="hoodStripes" patternUnits="userSpaceOnUse" width="10" height="10">
      <line x1="0" y1="0" x2="10" y2="0" stroke="#ff8c42" stroke-width="2"/>
    </pattern>
    <linearGradient id="hoodGradient" x1="0%" y1="0%" x2="100%" y2="0%">
      <stop offset="0%" style="stop-color:#4a90e2"/>
      <stop offset="100%" style="stop-color:#7bbcff"/>
    </linearGradient>
  </defs>
  <rect x="133.3153" y="289.10046" width="351.94848" height="60" fill="url(#hoodGradient)" opacity="0.2"/>
  <!-- Ground -->
  <path d="M654.04004,500.16453h0c0,.46394-.37609,.84003-.84003,.84003H71v-1.68005H653.20001c.46393,0,.84003,.37609,.84003,.84003Z" fill="#2a3b5e"/>
</svg>